<svg xmlns="http://www.w3.org/2000/svg" width="1044" height="308" fill="none" xmlns:v="https://vecta.io/nano"><path d="M111.792 289h-7.48l-6.16-16.104H71.84L65.68 289h-7.392l22.616-58.08h8.36L111.792 289zm-37.4-22.704H95.6l-10.648-28.6-10.56 28.6z" fill="url(#A)"/><path d="M136.638 230.92V289h-7.04v-58.08h7.04z" fill="url(#A)"/><path d="M204.669 282.4h33.264v6.6h-40.304v-58.08h7.04v51.48z" fill="url(#A)"/><path d="M272.006 289.88c-4.166 0-7.891-.909-11.176-2.728-3.227-1.819-5.75-4.429-7.568-7.832-1.819-3.461-2.728-7.568-2.728-12.32s.909-8.829 2.728-12.232c1.818-3.461 4.312-6.101 7.48-7.92s6.776-2.728 10.824-2.728c4.106 0 7.597.88 10.472 2.64 2.933 1.76 5.162 4.165 6.688 7.216 1.525 2.992 2.288 6.365 2.288 10.12a38.94 38.94 0 0 1-.088 2.728 20.78 20.78 0 0 1-.264 2.2H255.11v-6.248h32.472l-3.608.704c0-4.224-1.174-7.48-3.52-9.768-2.288-2.288-5.31-3.432-9.064-3.432-2.875 0-5.368.675-7.48 2.024-2.054 1.291-3.667 3.197-4.84 5.72-1.115 2.464-1.672 5.456-1.672 8.976 0 3.461.586 6.453 1.76 8.976s2.816 4.459 4.928 5.808c2.17 1.291 4.752 1.936 7.744 1.936 3.226 0 5.837-.616 7.832-1.848 2.053-1.232 3.696-2.904 4.928-5.016l5.544 3.256a18.37 18.37 0 0 1-4.312 5.192c-1.702 1.467-3.726 2.611-6.072 3.432-2.288.763-4.87 1.144-7.744 1.144z" fill="url(#A)"/><use href="#D" fill="url(#A)"/><path d="M366.246 289v-44h5.72l.969 7.216c1.232-2.699 3.021-4.723 5.367-6.072 2.406-1.349 5.31-2.024 8.712-2.024.763 0 1.585.059 2.465.176.938.117 1.73.352 2.375.704l-1.232 6.424c-.645-.235-1.349-.411-2.112-.528s-1.847-.176-3.255-.176c-1.819 0-3.667.528-5.544 1.584-1.819 1.056-3.345 2.669-4.577 4.84-1.232 2.112-1.848 4.811-1.848 8.096V289h-7.04z" fill="url(#A)"/><path d="M408.168 289v-44h6.16l.616 9.856-1.144-.968c.939-2.347 2.2-4.224 3.784-5.632 1.584-1.467 3.403-2.523 5.456-3.168 2.112-.645 4.283-.968 6.512-.968 3.168 0 6.043.616 8.624 1.848 2.582 1.173 4.635 2.992 6.16 5.456 1.584 2.464 2.376 5.603 2.376 9.416V289h-7.04v-25.696c0-4.869-1.056-8.243-3.168-10.12-2.053-1.936-4.605-2.904-7.656-2.904-2.112 0-4.224.499-6.336 1.496s-3.872 2.611-5.28 4.84c-1.349 2.229-2.024 5.221-2.024 8.976V289h-7.04z" fill="url(#A)"/><path d="M472.173 236.552c-1.584 0-2.875-.469-3.872-1.408-.939-.997-1.408-2.288-1.408-3.872s.469-2.845 1.408-3.784c.997-.997 2.288-1.496 3.872-1.496s2.845.499 3.784 1.496c.997.939 1.496 2.2 1.496 3.784s-.499 2.875-1.496 3.872c-.939.939-2.2 1.408-3.784 1.408zm3.52 8.448v44h-7.04v-44h7.04z" fill="url(#A)"/><path d="M498.028 289v-44h6.16l.616 9.856-1.144-.968c.938-2.347 2.2-4.224 3.784-5.632a14.19 14.19 0 0 1 5.456-3.168 22.17 22.17 0 0 1 6.512-.968c3.168 0 6.042.616 8.624 1.848 2.581 1.173 4.634 2.992 6.16 5.456 1.584 2.464 2.376 5.603 2.376 9.416V289h-7.04v-25.696c0-4.869-1.056-8.243-3.168-10.12-2.054-1.936-4.606-2.904-7.656-2.904-2.112 0-4.224.499-6.336 1.496s-3.872 2.611-5.28 4.84c-1.35 2.229-2.024 5.221-2.024 8.976V289h-7.04z" fill="url(#A)"/><path d="M595.56 236.904l1.584 6.248h-.264-.352c-2.875 0-5.104.587-6.688 1.76-1.525 1.115-2.288 2.933-2.288 5.456l-4.312-2.2c0-2.288.528-4.283 1.584-5.984a10.2 10.2 0 0 1 4.312-3.872c1.819-.939 3.813-1.408 5.984-1.408h.176.264zm-13.376 46.464c4.165 0 7.421.968 9.768 2.904 2.347 1.877 3.52 4.4 3.52 7.568a10.7 10.7 0 0 1-2.904 7.48c-1.877 2.112-4.429 3.725-7.656 4.84-3.168 1.173-6.747 1.76-10.736 1.76-6.923 0-12.115-1.173-15.576-3.52-3.403-2.347-5.104-5.163-5.104-8.448 0-2.347.763-4.459 2.288-6.336 1.584-1.819 4.224-2.845 7.92-3.08l-.616 1.32c-1.995-.528-3.696-1.408-5.104-2.64-1.349-1.291-2.024-3.139-2.024-5.544s.88-4.459 2.64-6.16c1.819-1.76 4.488-2.845 8.008-3.256l4.664 2.376h-.88c-2.875.293-4.928 1.027-6.16 2.2-1.173 1.115-1.76 2.347-1.76 3.696 0 1.643.587 2.875 1.76 3.696 1.232.763 2.933 1.144 5.104 1.144h12.848zm-8.096 18.656c3.403 0 6.189-.352 8.36-1.056 2.229-.704 3.872-1.613 4.928-2.728s1.584-2.317 1.584-3.608c0-1.584-.645-2.845-1.936-3.784-1.232-.939-3.491-1.408-6.776-1.408h-13.552c-1.877 0-3.461.469-4.752 1.408-1.29.997-1.936 2.347-1.936 4.048 0 2.171 1.232 3.901 3.696 5.192 2.523 1.291 5.984 1.936 10.384 1.936zm-.616-57.904c3.52 0 6.629.645 9.328 1.936 2.757 1.232 4.899 2.963 6.424 5.192s2.288 4.811 2.288 7.744c0 2.875-.763 5.456-2.288 7.744-1.525 2.229-3.667 3.989-6.424 5.28-2.699 1.232-5.808 1.848-9.328 1.848-5.808 0-10.267-1.379-13.376-4.136-3.109-2.816-4.664-6.395-4.664-10.736 0-2.933.763-5.515 2.288-7.744 1.584-2.229 3.725-3.96 6.424-5.192 2.699-1.291 5.808-1.936 9.328-1.936zm0 5.72c-3.051 0-5.603.851-7.656 2.552-2.053 1.643-3.08 3.843-3.08 6.6 0 2.699 1.027 4.899 3.08 6.6s4.605 2.552 7.656 2.552 5.603-.851 7.656-2.552 3.08-3.901 3.08-6.6c0-2.757-1.027-4.957-3.08-6.6-2.053-1.701-4.605-2.552-7.656-2.552z" fill="url(#A)"/><path d="M669.164 230.92c3.931 0 7.334.733 10.208 2.2 2.934 1.408 5.222 3.432 6.864 6.072s2.464 5.779 2.464 9.416-.821 6.776-2.464 9.416-3.93 4.693-6.864 6.16c-2.874 1.408-6.277 2.112-10.208 2.112H655.7V289h-7.04v-58.08h20.504zm-1.056 28.776c4.576 0 7.92-.939 10.032-2.816 2.112-1.936 3.168-4.693 3.168-8.272 0-3.637-1.056-6.395-3.168-8.272s-5.456-2.816-10.032-2.816H655.7v22.176h12.408z" fill="url(#A)"/><path d="M713.739 224.76v53.064c0 2.229.411 3.784 1.232 4.664.822.821 2.142 1.232 3.96 1.232 1.174 0 2.142-.088 2.904-.264s1.79-.499 3.08-.968l-1.144 6.16a12.5 12.5 0 0 1-3.08.88 16.59 16.59 0 0 1-3.432.352c-3.578 0-6.248-.968-8.008-2.904-1.701-1.936-2.552-4.899-2.552-8.888V224.76h7.04z" fill="url(#A)"/><use href="#D" x="429.547" fill="url(#B)"/><path d="M804.459 232.504v44.352c0 2.171.616 3.784 1.848 4.84s2.816 1.584 4.752 1.584c1.701 0 3.168-.293 4.4-.88s2.346-1.379 3.344-2.376l2.464 5.896c-1.35 1.232-2.963 2.2-4.84 2.904-1.819.704-3.931 1.056-6.336 1.056-2.23 0-4.312-.381-6.248-1.144-1.936-.821-3.491-2.083-4.664-3.784-1.115-1.76-1.702-4.048-1.76-6.864V234.44l7.04-1.936zM820.475 245v6.072h-31.856V245h31.856z" fill="url(#A)"/><path d="M853.087 224.32c1.525 0 2.963.176 4.312.528s2.405.851 3.168 1.496l-1.848 5.72a6.58 6.58 0 0 0-2.288-.968c-.821-.235-1.731-.352-2.728-.352-2.523 0-4.488.616-5.896 1.848-1.408 1.173-2.112 3.08-2.112 5.72V289h-7.04v-51.392c0-1.936.293-3.725.88-5.368s1.467-3.051 2.64-4.224c1.232-1.173 2.757-2.083 4.576-2.728s3.931-.968 6.336-.968zm7.304 20.68v6.072h-30.536V245h30.536z" fill="url(#A)"/><path d="M892.783 244.12c4.165 0 7.832.909 11 2.728 3.227 1.819 5.749 4.459 7.568 7.92 1.818 3.403 2.728 7.48 2.728 12.232s-.91 8.859-2.728 12.32c-1.819 3.403-4.341 6.013-7.568 7.832-3.168 1.819-6.835 2.728-11 2.728-4.107 0-7.773-.909-11-2.728s-5.75-4.429-7.568-7.832c-1.819-3.461-2.728-7.568-2.728-12.32s.909-8.829 2.728-12.232c1.818-3.461 4.341-6.101 7.568-7.92s6.893-2.728 11-2.728zm0 6.072c-2.992 0-5.544.675-7.656 2.024s-3.755 3.285-4.928 5.808c-1.115 2.464-1.672 5.456-1.672 8.976 0 3.461.557 6.453 1.672 8.976 1.173 2.523 2.816 4.459 4.928 5.808s4.664 2.024 7.656 2.024 5.544-.675 7.656-2.024 3.725-3.285 4.84-5.808c1.173-2.523 1.76-5.515 1.76-8.976 0-3.52-.587-6.512-1.76-8.976-1.115-2.523-2.728-4.459-4.84-5.808s-4.664-2.024-7.656-2.024z" fill="url(#A)"/><path d="M933.332 289v-44h5.72l.968 7.216c1.232-2.699 3.022-4.723 5.368-6.072 2.406-1.349 5.31-2.024 8.712-2.024.763 0 1.584.059 2.464.176.939.117 1.731.352 2.376.704l-1.232 6.424c-.645-.235-1.349-.411-2.112-.528s-1.848-.176-3.256-.176c-1.818 0-3.666.528-5.544 1.584-1.818 1.056-3.344 2.669-4.576 4.84-1.232 2.112-1.848 4.811-1.848 8.096V289h-7.04z" fill="url(#A)"/><path d="M975.254 289v-44h6.16l.44 6.864c1.584-2.699 3.638-4.664 6.16-5.896 2.582-1.232 5.222-1.848 7.92-1.848 3.11 0 6.046.704 8.796 2.112 2.76 1.408 4.87 3.579 6.34 6.512.94-1.995 2.26-3.608 3.96-4.84 1.7-1.291 3.55-2.229 5.54-2.816 2.06-.645 3.99-.968 5.81-.968 2.82 0 5.49.587 8.01 1.76 2.58 1.173 4.69 2.992 6.34 5.456 1.64 2.464 2.46 5.632 2.46 9.504V289h-7.04v-27.456c0-3.989-1-6.864-2.99-8.624-2-1.76-4.46-2.64-7.39-2.64-2.29 0-4.43.557-6.43 1.672-1.99 1.115-3.61 2.757-4.84 4.928-1.17 2.171-1.76 4.84-1.76 8.008V289h-7.04v-27.456c0-3.989-.99-6.864-2.99-8.624-1.99-1.76-4.458-2.64-7.392-2.64-1.936 0-3.93.528-5.984 1.584-1.994.997-3.666 2.611-5.016 4.84s-2.024 5.163-2.024 8.8V289h-7.04z" fill="url(#A)"/><path d="M249.97 205h-20.664V43.281h28.974l98.267 111.07V43.281h20.552V205h-28.975L249.97 94.043V205z" fill="url(#C)"/><path d="M439.989 143.457c4.642 1.048 9.284 1.872 13.926 2.471s9.321.898 14.038.898c4.942 0 9.509-.449 13.701-1.347 4.268-.974 7.936-2.546 11.006-4.717 3.145-2.246 5.615-5.204 7.412-8.872s2.696-8.236 2.696-13.702c0-4.417-.599-8.46-1.797-12.128s-2.995-6.814-5.391-9.434c-2.321-2.621-5.203-4.642-8.647-6.065-3.444-1.497-7.45-2.246-12.017-2.246-4.268 0-8.123.786-11.567 2.358a30.32 30.32 0 0 0-8.985 6.401c-2.545 2.62-4.754 5.69-6.626 9.209-1.797 3.519-3.294 7.188-4.492 11.006a69.58 69.58 0 0 0-2.583 11.567c-.524 3.894-.786 7.562-.786 11.006v1.797a14.45 14.45 0 0 0 .112 1.797zm93.55-25.605c0 5.315-.861 10.07-2.583 14.262-1.722 4.118-4.08 7.749-7.075 10.894-2.92 3.144-6.327 5.802-10.22 7.973s-8.048 3.969-12.466 5.391c-4.417 1.348-8.984 2.321-13.701 2.92-4.642.599-9.171.898-13.589.898-5.615 0-11.155-.374-16.621-1.123a101.4 101.4 0 0 1-16.172-3.818c.824 4.941 2.134 9.658 3.931 14.15 1.797 4.418 4.193 8.311 7.187 11.68 2.995 3.294 6.664 5.915 11.006 7.861 4.418 1.947 9.621 2.92 15.611 2.92 3.968 0 7.749-.599 11.342-1.797a36.24 36.24 0 0 0 9.883-5.053c2.995-2.171 5.616-4.754 7.862-7.749 2.321-2.995 4.192-6.327 5.615-9.995l16.396 6.064c-2.47 5.915-5.877 11.043-10.219 15.386-4.268 4.267-9.135 7.824-14.6 10.669-5.391 2.77-11.156 4.829-17.295 6.177-6.064 1.347-12.091 2.021-18.081 2.021-9.883 0-19.017-1.647-27.402-4.941-8.386-3.37-15.611-8.049-21.675-14.038s-10.819-13.14-14.263-21.451-5.166-17.407-5.166-27.29 1.722-18.979 5.166-27.29 8.198-15.46 14.263-21.45 13.289-10.632 21.675-13.926c8.385-3.369 17.519-5.054 27.402-5.054 4.792 0 9.696.337 14.712 1.011a86 86 0 0 1 14.6 3.257c4.716 1.423 9.171 3.294 13.364 5.615s7.824 5.203 10.893 8.647c3.145 3.369 5.616 7.3 7.412 11.792 1.872 4.492 2.808 9.621 2.808 15.386z" fill="url(#C)"/><path d="M550.609 149.521c0-5.914.487-12.054 1.46-18.417 1.048-6.364 2.508-12.728 4.38-19.092a179.04 179.04 0 0 1 6.963-18.868 159.81 159.81 0 0 1 9.097-17.856h27.739c-1.872 5.615-3.556 11.493-5.054 17.632a304.84 304.84 0 0 0-3.706 18.306c-.973 6.064-1.759 12.016-2.358 17.856-.524 5.84-.786 11.268-.786 16.284 0 2.92.112 6.065.337 9.434.299 3.294.786 6.626 1.46 9.995.673 3.294 1.609 6.476 2.807 9.546 1.273 3.069 2.883 5.802 4.829 8.198 1.947 2.321 4.305 4.193 7.076 5.615 2.845 1.348 6.176 2.022 9.995 2.022 3.743 0 7.075-.824 9.995-2.471a28.95 28.95 0 0 0 7.861-6.626c2.246-2.77 4.155-5.915 5.728-9.433s2.845-7.113 3.818-10.782c1.048-3.743 1.797-7.374 2.246-10.893.524-3.594.786-6.813.786-9.659V75.288h37.959V205h-14.599l-17.408-30.21c-2.171 5.016-4.829 9.583-7.973 13.701-3.07 4.043-6.589 7.525-10.557 10.445s-8.385 5.166-13.252 6.738c-4.792 1.572-9.995 2.358-15.61 2.358-8.985 0-16.808-1.46-23.472-4.38s-12.204-6.963-16.621-12.129-7.712-11.305-9.883-18.418c-2.171-7.187-3.257-15.048-3.257-23.584z" fill="url(#C)"/><path d="M825.194 86.743l-21.338 35.376c-.898-2.995-2.058-6.364-3.481-10.107s-3.182-7.225-5.278-10.445c-2.097-3.294-4.605-6.027-7.525-8.198-2.92-2.246-6.289-3.369-10.107-3.369-3.519 0-6.589.898-9.209 2.695-2.546 1.797-4.717 4.155-6.514 7.075-1.797 2.846-3.294 6.102-4.492 9.77-1.123 3.594-2.021 7.262-2.695 11.006-.599 3.668-1.011 7.225-1.236 10.669-.224 3.369-.337 6.289-.337 8.76V205h-38.071V75.288h14.6l15.385 30.21c2.097-4.866 4.493-9.321 7.188-13.364 2.695-4.118 5.802-7.637 9.321-10.557 3.519-2.995 7.487-5.316 11.905-6.963 4.492-1.647 9.545-2.471 15.161-2.471 2.92 0 6.176.262 9.77.786 3.594.449 7.113 1.273 10.557 2.471 3.444 1.123 6.626 2.62 9.546 4.492s5.203 4.155 6.85 6.851z" fill="url(#C)"/><path d="M969.057 205h-37.959v-15.498c-4.493 6.139-9.921 10.706-16.285 13.701-6.289 2.92-13.214 4.38-20.776 4.38-9.883 0-18.717-1.759-26.504-5.278s-14.375-8.311-19.765-14.375c-5.391-6.14-9.509-13.327-12.354-21.563s-4.268-17.07-4.268-26.504 1.423-18.268 4.268-26.504 6.963-15.385 12.354-21.45c5.39-6.139 11.979-10.968 19.765-14.487s16.621-5.278 26.504-5.278c5.016 0 9.771.749 14.263 2.246 4.567 1.497 8.722 3.631 12.466 6.401 3.818 2.695 7.15 5.99 9.995 9.883 2.92 3.818 5.203 8.086 6.85 12.803l16.846-28.189h14.6V205zm-38.184-65.137c0-3.369-.187-6.925-.561-10.669a79.75 79.75 0 0 0-1.685-11.118c-.824-3.668-1.984-7.15-3.481-10.444-1.423-3.369-3.295-6.327-5.616-8.872-2.246-2.62-4.979-4.679-8.198-6.177s-6.963-2.246-11.23-2.246-7.974.786-11.119 2.358c-3.144 1.497-5.839 3.556-8.086 6.177-2.246 2.546-4.117 5.503-5.615 8.872-1.422 3.369-2.545 6.888-3.369 10.557s-1.422 7.374-1.797 11.118c-.299 3.669-.449 7.15-.449 10.444s.15 6.813.449 10.557a93.2 93.2 0 0 0 1.797 11.118c.824 3.669 1.947 7.188 3.369 10.557 1.498 3.369 3.369 6.364 5.615 8.984 2.247 2.546 4.942 4.605 8.086 6.177 3.145 1.497 6.851 2.246 11.119 2.246 3.893 0 7.337-.786 10.332-2.358 3.069-1.648 5.727-3.819 7.973-6.514 2.321-2.695 4.268-5.765 5.84-9.209a67.02 67.02 0 0 0 3.818-10.669c.974-3.669 1.685-7.3 2.134-10.894.449-3.668.674-7 .674-9.995z" fill="url(#C)"/><path d="M1038.8 205h-37.96V15.542h14.6l23.36 39.419V205z" fill="url(#C)"/><path fill-rule="evenodd" d="M104.731 9.265c21.548-19.793 49.602-4.812 93.707 16.286 23.045 11.024 21.541 14.532 21.541 23.803v143.63c.178 16.06-3.999 19.459-15.801 19.824H67.976s-10.481-4.406-19.368-14.625c-13.663-15.714-28.024-40.388-29.544-46.626-2.5-10.263-1.531-20.706-1.524-20.773C5.307 124.927 0 116 0 96.457c0-21.297 10.249-29.71 21.297-36.08 0-46.101 44.85-75.666 83.434-51.112zM88.69 25.981c-7.275-.587-12.262-1.752-23.051 0-13.335 4.222-20.754 21.449-20.796 21.547 0 0-3.762 12.278 0 12.528s31.118 14.207 29.564 30.567-2.004 17.275-9.52 17.275-10.523-1.49-10.523-6.251.195-8.348-.251-9.521-10.52-14.782-17.789-14.782-11.499 2.997-14.531 22.049 23.047 14.532 23.051 27.06V148c.939 5.061 2.618 8.262 10.523 13.53 16.834 12.104 28.254 12.608 40.339 0V34.249c.106-5.17-1.138-7.113-7.016-8.268zm55.634 0c-10.789-1.752-15.775-.587-23.051 0-5.877 1.154-7.121 3.098-7.015 8.268V161.53c12.085 12.608 23.505 12.104 40.339 0 7.905-5.268 12.526-19.718 12.526-19.718.014-.036 2.896-7.321 0-12.276 0 0-6.012-8.769-18.791-9.771s-23.971-37.333-5.512-38.586 15.786 32.572 27.812 31.82 17.839-11.953 16.285-28.313-25.305-11.525-20.795-21.297-1.002-15.861-1.002-15.861c-.046-.106-7.464-17.326-20.796-21.547z" fill="#ff6b35"/><defs><linearGradient id="A" x1="0" y1="153.96" x2="1043.19" y2="153.96" gradientUnits="userSpaceOnUse"><stop stop-color="#ff6b35"/><stop offset="1" stop-color="#eb1919"/></linearGradient><linearGradient id="B" x1="-429.547" y1="153.96" x2="613.643" y2="153.96" gradientUnits="userSpaceOnUse"><stop stop-color="#ff6b35"/><stop offset="1" stop-color="#eb1919"/></linearGradient><linearGradient id="C" x1="-267.661" y1="120.969" x2="1014.39" y2="192.005" gradientUnits="userSpaceOnUse"><stop offset=".303" stop-color="#ff6b35"/><stop offset=".7" stop-color="#f54227"/><stop offset=".928" stop-color="#eb1919"/></linearGradient><path id="D" d="M336.099 260.576c0-3.285-.88-5.808-2.64-7.568-1.76-1.819-4.254-2.728-7.48-2.728-3.051 0-5.632.675-7.744 2.024-2.112 1.291-3.667 3.403-4.664 6.336l-5.72-3.52c1.173-3.285 3.344-5.925 6.512-7.92 3.168-2.053 7.098-3.08 11.792-3.08 3.168 0 6.042.557 8.624 1.672 2.581 1.056 4.605 2.699 6.072 4.928 1.525 2.171 2.288 4.987 2.288 8.448v21.296c0 2.112 1.114 3.168 3.344 3.168 1.114 0 2.2-.147 3.256-.44l-.352 5.544c-1.174.587-2.699.88-4.576.88-1.702 0-3.227-.323-4.576-.968a7.21 7.21 0 0 1-3.168-2.904c-.763-1.349-1.144-3.021-1.144-5.016v-.88l1.76.264c-.704 2.288-1.907 4.165-3.608 5.632a17.65 17.65 0 0 1-5.72 3.168c-2.112.645-4.195.968-6.248.968-2.582 0-4.987-.44-7.216-1.32s-4.019-2.2-5.368-3.96c-1.291-1.819-1.936-4.048-1.936-6.688 0-3.285 1.085-5.984 3.256-8.096 2.229-2.171 5.309-3.637 9.24-4.4l17.424-3.432v5.808l-14.168 2.904c-2.875.587-5.016 1.408-6.424 2.464s-2.112 2.523-2.112 4.4a5.58 5.58 0 0 0 2.112 4.488c1.466 1.115 3.52 1.672 6.16 1.672 1.701 0 3.314-.205 4.84-.616 1.584-.469 2.992-1.144 4.224-2.024 1.232-.939 2.2-2.083 2.904-3.432.704-1.408 1.056-3.051 1.056-4.928v-12.144z"/></defs></svg>